<?xml version="1.0" encoding="utf-8"?>
<!-- Generator: Adobe Illustrator 27.1.1, SVG Export Plug-In . SVG Version: 6.00 Build 0)  -->
<svg version="1.1" id="Layer_1" xmlns="http://www.w3.org/2000/svg" xmlns:xlink="http://www.w3.org/1999/xlink" x="0px" y="0px"
	 viewBox="0 0 256 256" style="enable-background:new 0 0 256 256;" xml:space="preserve">
<style type="text/css">
	.st0{fill:none;}
	.st1{clip-path:url(#SVGID_00000123422015897868054180000013973047084940921491_);}
	.st2{fill:#002233;}
</style>
<g transform="translate(-297 -900.582)">
	<rect x="297" y="900.6" class="st0" width="256" height="256"/>
	<g transform="translate(311.192 900.582)">
		<g>
			<defs>
				<rect id="SVGID_1_" x="0" width="227.6" height="256"/>
			</defs>
			<clipPath id="SVGID_00000127011107802790718690000006598062930292326331_">
				<use xlink:href="#SVGID_1_"  style="overflow:visible;"/>
			</clipPath>
			<g style="clip-path:url(#SVGID_00000127011107802790718690000006598062930292326331_);">
				<path class="st2" d="M122.6,10.4c-5.1-2.9-11.3-2.9-16.4,0L16.8,62.6c-5,2.9-8.1,8.3-8.1,14.1L8.2,180.2
					c0,5.9,3.1,11.3,8.2,14.2l88.6,51.2c5.1,2.9,11.3,2.9,16.4,0l89.5-52.2c5-2.9,8.1-8.3,8.1-14.1l0.5-103.6
					c0-5.9-3.1-11.3-8.2-14.2L122.6,10.4z M126.7,3.3l88.6,51.2c7.6,4.4,12.3,12.5,12.3,21.4l-0.4,103.5c0,8.7-4.7,16.7-12.2,21.1
					l-89.5,52.2c-7.6,4.4-17,4.5-24.6,0.1l-88.6-51.2C4.7,197.1,0,189,0,180.2L0.5,76.6c0-8.7,4.7-16.7,12.2-21.1l89.5-52.2
					C109.7-1.1,119.1-1.1,126.7,3.3 M48.7,143.1c0.9,3.6,2.5,6.9,4.6,9.9c2.1,2.9,4.9,5.4,8,7.2c3.5,2,7.6,3,11.6,2.9
					c5.9,0.3,11.8-1.6,16.3-5.5c4.1-3.9,7-9,8.2-14.5h9.5c-1.5,7.9-5.3,15-11.1,20.6c-6.5,5.2-14.6,7.8-22.9,7.3
					c-5.5,0.1-11-1-16-3.3c-4.3-2-8.1-5.1-11-8.9c-2.9-3.9-5-8.4-6.3-13.2c-1.4-5.2-2.1-10.5-2-15.8c0-5.1,0.7-10.2,2-15.1
					c1.3-4.8,3.4-9.2,6.3-13.2c2.9-3.9,6.6-7.1,11-9.4c4.9-2.5,10.4-3.7,16-3.6c10.7-0.4,20.9,4.8,26.8,13.7c2.9,4.3,4.9,9,6,14.1
					c1.2,5.3,1.7,10.7,1.5,16.1h-60C47.3,136.1,47.8,139.6,48.7,143.1 M95.9,114c-1.1-3.2-2.8-6.2-4.9-8.8c-2.1-2.6-4.7-4.7-7.7-6.2
					c-3.2-1.6-6.7-2.4-10.3-2.3c-3.6-0.1-7.2,0.7-10.4,2.3c-3,1.5-5.6,3.6-7.7,6.2c-2.2,2.7-3.9,5.7-5.1,8.9
					c-1.2,3.3-2.1,6.8-2.5,10.4h50.5C97.7,120.9,97.1,117.4,95.9,114 M113.5,90.9h11.9l22.2,29.6l21.8-29.6h11.9l-28.1,37.4
					l30.4,40.7h-12.1l-24.5-32.8l-24,32.8h-11.8l30.2-40.5L113.5,90.9z"/>
			</g>
		</g>
	</g>
</g>
</svg>
